<?xml version="1.0" encoding="utf-8"?>
<!-- Generator: Adobe Illustrator 19.1.0, SVG Export Plug-In . SVG Version: 6.00 Build 0)  -->
<svg version="1.1" id="Layer_1" xmlns="http://www.w3.org/2000/svg" xmlns:xlink="http://www.w3.org/1999/xlink" x="0px" y="0px"
	 width="1000px" height="1000px" viewBox="0 0 1000 1000" style="enable-background:new 0 0 1000 1000;" xml:space="preserve">
<style type="text/css">
	.st0{fill:#FFC200;}
	.st1{fill:#6A4B00;}
</style>
<g>
	<path class="st0" d="M961.8,363.7c-6.3-5.5-9.8-4-13.2-11.1c-1.7-3.4-4.6-6.4-8.1-7.7c-2.9-1.1-6.3-0.6-9.3-1.7
		c-2.5-1-4.7-3-7.2-3.9c-4.3-1.6-9,0.2-13.2,2c-6,2.8-8.9,8.7-12,14.2c-3.6,6.5-8.4,11.3-13.7,16.5c-1,1-13.6,11.2-13.6,11.4
		c-13,6.4-30.2,15.5-47.5,23.5c-17.2,7.9-34.4,14.9-50.5,23c-16,7.9-30.8,17.1-50.7,27.7s-44.9,23-76.4,33.8
		c-31.4,10.8-69.4,20.2-106,24.8c-36.6,4.5-71.8,4.1-106.7-0.8c-34.8-4.9-69.2-14.3-103.5-32.2c-34.2-17.8-67.9-44.1-90.7-63.1
		s-34.4-31-48.3-40c-13.8-9-29.9-15.2-42-27.3c-12.2-12.2-20.6-30.1-25.7-45.5c-5.1-15.4-6.7-28.1-7.2-37.1
		c-0.4-6.5-1.3-13.5-3.4-20c-2.4-7.6-7.1-12.2-11.8-18.4c-5.7-7.6-10.1-18.3-18.1-20.2c-5.8-1.3-11.4,2.6-16.5,6.6
		c-9.2,7.3-18.1,15.3-26.6,23.7c-2.5,2.5-5.2,5.4-6,9.4c-1.8,8.9,5.3,19,6,28.1c0.5,5.1,3.3,6.7,6.6,9.9c3.7,3.4,6.3,7.6,8.3,12
		c3.4,6.9,7,17.6,10.2,28.2c3.3,10.6,6,20.8,7.6,32c1.6,11.2,1.9,23.4,0.7,36.5c-1.3,13.2-4.5,27.6-6.5,40.1s-3,23.1-2.4,34.7
		c0.6,11.7,2.9,24.1,7.8,39.5c5.1,15.4,12.8,33.6,26.4,51.9c13.5,18.4,32.8,36.9,55.4,55.6c22.6,18.8,48.8,37.8,73.7,52.6
		c25.1,14.7,49,25.2,75,34.2c26,9,54.2,16.6,81.2,21.3s52.8,6.6,85,6.9c32.3,0.4,71.1-1,109.8-7.1c38.8-6.1,77.6-17.2,108.5-28.1
		c31.1-10.8,54.4-21.6,78.8-35.2c24.3-13.6,49.5-30.2,72.7-50.1c23.1-19.9,44.3-43,60.9-70.2c16.6-27.1,28.7-58.3,36-79.7
		c3.8-11,7-22.3,9.8-33.6c2.7-11,4.1-21.5,12.4-29.9c5.1-5.1,10.6-11.9,10.6-17C968.7,373.9,968.5,369.8,961.8,363.7z"/>
	<path class="st1" d="M80.3,220.6c-2.6-0.2-5.3,0.5-7.6,2.2c-11.3,8.4-21.8,17.8-31.3,28.1c-0.7,0.8-1.5,1.6-1.7,2.7
		c-0.3,1.1,0,2.1,0.4,3.2c3.3,9.9,5.9,4.4,11.2-1.2c9.3-9.8,19.6-18,30.4-26c1.9-1.4,6.2-3.3,5.4-5.8
		C86.5,221.9,82,220.8,80.3,220.6z"/>
	<path class="st1" d="M478.5,573.5c7.5,0,14.8-0.2,21.9-0.5c160.7-8,316.6-104,371.2-189.5c-0.1,0.1-0.2,0.2-0.2,0.2
		c-6.6,3.2-14.3,7.2-22.5,11.3c-55.8,69-190.1,158.4-349,166.3c-98.6,4.9-241.1-22.1-360.1-178.7l-5.3,12.2
		C247.9,544.2,378.6,573.5,478.5,573.5z"/>
</g>
</svg>
